<svg xmlns="http://www.w3.org/2000/svg" version="1.1" xmlns:xlink="http://www.w3.org/1999/xlink" width="200" height="200"><svg xmlns="http://www.w3.org/2000/svg" version="1.1" xmlns:xlink="http://www.w3.org/1999/xlink" viewBox="0 0 200 200"><rect width="200" height="200" fill="url('#gradient')"></rect><defs><linearGradient id="SvgjsLinearGradient1001" gradientTransform="rotate(45 0.5 0.5)"><stop offset="0%" stop-color="#ffffff"></stop><stop offset="100%" stop-color="#eeeeee"></stop></linearGradient></defs><g><g fill="#121619" transform="matrix(2.2901736854627646,0,0,2.2901736854627646,51.633367079171634,116.05583596518855)" stroke="#778ca7" stroke-width="0"><path d="M6.04 0.20L6.04 0.20Q3.60 0.20 2.10-1.25Q0.60-2.71 0.60-5.03L0.60-5.03L0.60-5.30Q0.60-6.92 1.20-8.16Q1.80-9.40 2.95-10.08Q4.10-10.76 5.68-10.76L5.68-10.76Q7.91-10.76 9.20-9.38Q10.49-8.00 10.49-5.53L10.49-5.53L10.49-4.25L3.95-4.25Q4.12-3.36 4.72-2.85Q5.31-2.34 6.26-2.34L6.26-2.34Q7.82-2.34 8.70-3.44L8.70-3.44L10.21-1.66Q9.59-0.81 8.46-0.31Q7.33 0.20 6.04 0.20ZM5.66-8.22L5.66-8.22Q4.22-8.22 3.95-6.31L3.95-6.31L7.27-6.31L7.27-6.56Q7.29-7.35 6.87-7.79Q6.45-8.22 5.66-8.22ZM12.35-13.19L15.64-13.19L15.64-10.57L17.38-10.57L17.38-8.28L15.64-8.28L15.64-3.45Q15.64-2.85 15.86-2.62Q16.07-2.38 16.71-2.38L16.71-2.38Q17.20-2.38 17.53-2.44L17.53-2.44L17.53-0.09Q16.64 0.20 15.67 0.20L15.67 0.20Q13.97 0.20 13.16-0.61Q12.35-1.41 12.35-3.04L12.35-3.04L12.35-8.28L11.01-8.28L11.01-10.57L12.35-10.57L12.35-13.19ZM17.98-4.82L17.97-5.38Q17.97-6.96 18.58-8.20Q19.20-9.43 20.35-10.10Q21.50-10.76 23.06-10.76L23.06-10.76Q25.43-10.76 26.80-9.29Q28.16-7.82 28.16-5.29L28.16-5.29L28.16-5.18Q28.16-2.71 26.79-1.25Q25.42 0.20 23.08 0.20L23.08 0.20Q20.82 0.20 19.45-1.16Q18.09-2.51 17.98-4.82L17.98-4.82ZM21.27-5.77L21.26-5.18Q21.26-3.71 21.72-3.03Q22.18-2.34 23.08-2.34L23.08-2.34Q24.83-2.34 24.87-5.05L24.87-5.05L24.87-5.38Q24.87-8.22 23.06-8.22L23.06-8.22Q21.41-8.22 21.27-5.77L21.27-5.77ZM41.64-14.22L41.64 0L38.23 0L33.19-8.85L33.19 0L29.77 0L29.77-14.22L33.19-14.22L38.22-5.37L38.22-14.22L41.64-14.22Z"></path></g></g></svg><style>@media (prefers-color-scheme: light) { :root { filter: none; } }
@media (prefers-color-scheme: dark) { :root { filter: none; } }
</style></svg>